# xmcd
#
# Track frame offsets: 
#        150
#        9771
#        23055
#        35130
#        43050
#        52919
#        61405
#        71045
#        82611
#        92023
#        102481
#        113032
#
# Disc length: 1631 seconds
#
# Revision: 0
# Processed by: cddbd v1.5.2PL0 Copyright (c) Steve Scherf et al.
# Submitted via: ExactAudioCopy v0.99pb5
#
DISCID=8e065d0c
DTITLE=Floyd Cramer - On The Rebound
DYEAR=1961
DGENRE=Country
TTITLE0=On The Rebound
TTITLE1=Wonderland By Night
TTITLE2=I Can Just Imagine
TTITLE3=Faded Love
TTITLE4=Let It Be Me
TTITLE5=Two Of A Kind
TTITLE6=Danny Boy
TTITLE7=Corinna, Corinna
TTITLE8=Tammy
TTITLE9=First Impression
TTITLE10=San Antonio Rose
TTITLE11=Alma Mater
EXTD=
EXTT0=
EXTT1=
EXTT2=
EXTT3=
EXTT4=
EXTT5=
EXTT6=
EXTT7=
EXTT8=
EXTT9=
EXTT10=
EXTT11=
PLAYORDER=
